<svg xmlns="http://www.w3.org/2000/svg" viewBox="0 0 600 200" width="600" height="200">
  <rect width="600" height="200" rx="0" fill="#162033"/>
  <!-- Star -->
  <polygon fill="#BF3A2B" points="80,28 93.5,70.4 138.4,70.5 102.2,94.2 115.7,136.7 80,113 44.3,136.7 57.8,94.2 21.6,70.5 66.5,70.4"/>
  <g fill="rgba(0,0,0,0.25)">
    <polygon points="80,80 80,28 93.5,70.4"/>
    <polygon points="80,80 138.4,70.5 102.2,94.2"/>
    <polygon points="80,80 115.7,136.7 80,113"/>
    <polygon points="80,80 44.3,136.7 57.8,94.2"/>
    <polygon points="80,80 21.6,70.5 66.5,70.4"/>
  </g>
  <!-- Text -->
  <text x="170" y="95" font-family="Georgia, 'Times New Roman', serif" font-weight="700" font-size="42" fill="#F5EFE4" letter-spacing="-1">Texas </text>
  <text x="333" y="95" font-family="Georgia, 'Times New Roman', serif" font-weight="500" font-style="italic" font-size="42" fill="#BF3A2B" letter-spacing="-1">Digital</text>
  <text x="470" y="95" font-family="Georgia, 'Times New Roman', serif" font-weight="700" font-size="42" fill="#F5EFE4" letter-spacing="-1"> Co.</text>
  <text x="170" y="128" font-family="monospace" font-size="11" fill="rgba(245,239,228,0.4)" letter-spacing="4" text-transform="uppercase">WEBSITES  ·  DRONE  ·  AI  ·  PRINT  ·  ADS</text>
</svg>
